HIERARCHY
ROOT Hips
{
	OFFSET 0.000000 0.000000 0.000000
	CHANNELS 6 Xposition Yposition Zposition Xrotation Yrotation Zrotation
	JOINT LeftUpLeg_virtual
	{
		OFFSET 0.000000 0.000000 0.000000
		CHANNELS 3 Xrotation Yrotation Zrotation
		JOINT LeftUpLeg
		{
			OFFSET 11.394100 -6.187798 -0.413800
			CHANNELS 3 Xrotation Yrotation Zrotation
			JOINT LeftLeg
			{
				OFFSET 0.430247 -32.302673 3.732800
				CHANNELS 3 Xrotation Yrotation Zrotation
				JOINT LeftFoot
				{
					OFFSET -0.430247 -48.264931 -6.423300
					CHANNELS 3 Xrotation Yrotation Zrotation
					JOINT LeftToeBase
					{
						OFFSET 4.230900 -16.068199 23.438400
						CHANNELS 3 Xrotation Yrotation Zrotation
						JOINT LeftToe_End
						{
							OFFSET 4.510700 0.695400 19.974600
							CHANNELS 3 Xrotation Yrotation Zrotation
							End Site
							{
								OFFSET 0 0 0
							}
						}
					}
				}
			}
		}
	}
	JOINT RightUpLeg_virtual
	{
		OFFSET 0.000000 0.000000 0.000000
		CHANNELS 3 Xrotation Yrotation Zrotation
		JOINT RightUpLeg
		{
			OFFSET -11.333700 -6.187798 -0.413800
			CHANNELS 3 Xrotation Yrotation Zrotation
			JOINT RightLeg
			{
				OFFSET -0.430392 -32.302628 3.733000
				CHANNELS 3 Xrotation Yrotation Zrotation
				JOINT RightFoot
				{
					OFFSET 0.430392 -48.264973 -6.423500
					CHANNELS 3 Xrotation Yrotation Zrotation
					JOINT RightToeBase
					{
						OFFSET -4.230900 -16.068199 23.438400
						CHANNELS 3 Xrotation Yrotation Zrotation
						JOINT RightToe_End
						{
							OFFSET -4.510700 0.695400 19.974600
							CHANNELS 3 Xrotation Yrotation Zrotation
							End Site
							{
								OFFSET 0 0 0
							}
						}
					}
				}
			}
		}
	}
	JOINT Spine_virtual
	{
		OFFSET 0.000000 0.000000 0.000000
		CHANNELS 3 Xrotation Yrotation Zrotation
		JOINT Spine
		{
			OFFSET -0.002400 12.777504 0.315300
			CHANNELS 3 Xrotation Yrotation Zrotation
			JOINT Spine1
			{
				OFFSET -0.002067 5.816869 0.032633
				CHANNELS 3 Xrotation Yrotation Zrotation
				JOINT Spine1_split
				{
					OFFSET -0.002067 5.816869 0.032633
					CHANNELS 3 Xrotation Yrotation Zrotation
					JOINT Spine2
					{
						OFFSET -0.002067 5.816869 0.032633
						CHANNELS 3 Xrotation Yrotation Zrotation
						JOINT Neck_virtual
						{
							OFFSET 0.000000 0.000000 0.000000
							CHANNELS 3 Xrotation Yrotation Zrotation
							JOINT Neck
							{
								OFFSET -0.003700 21.199493 -0.826900
								CHANNELS 3 Xrotation Yrotation Zrotation
								JOINT Head
								{
									OFFSET 0.000000 20.442200 4.834800
									CHANNELS 3 Xrotation Yrotation Zrotation
									JOINT HeadTop_End
									{
										OFFSET 0.000000 34.668396 4.968400
										CHANNELS 3 Xrotation Yrotation Zrotation
										End Site
										{
											OFFSET 0 0 0
										}
									}
								}
							}
						}
						JOINT LeftShoulder_virtual
						{
							OFFSET 0.000000 0.000000 0.000000
							CHANNELS 3 Xrotation Yrotation Zrotation
							JOINT LeftShoulder
							{
								OFFSET 3.288150 8.794197 -1.372250
								CHANNELS 3 Xrotation Yrotation Zrotation
								JOINT LeftShoulder_split
								{
									OFFSET 3.288150 8.794197 -1.372250
									CHANNELS 3 Xrotation Yrotation Zrotation
									JOINT LeftArm
									{
										OFFSET 11.953299 -2.279007 -0.146200
										CHANNELS 3 Xrotation Yrotation Zrotation
										JOINT LeftForeArm
										{
											OFFSET 18.448900 0.000000 0.000000
											CHANNELS 3 Xrotation Yrotation Zrotation
											JOINT LeftHand
											{
												OFFSET 29.527798 0.000000 0.000000
												CHANNELS 3 Xrotation Yrotation Zrotation
												End Site
												{
													OFFSET 0 0 0
												}
											}
										}
									}
								}
							}
						}
						JOINT RightShoulder_virtual
						{
							OFFSET 0.000000 0.000000 0.000000
							CHANNELS 3 Xrotation Yrotation Zrotation
							JOINT RightShoulder
							{
								OFFSET -3.249400 8.794197 -1.372250
								CHANNELS 3 Xrotation Yrotation Zrotation
								JOINT RightShoulder_split
								{
									OFFSET -3.249400 8.794197 -1.372250
									CHANNELS 3 Xrotation Yrotation Zrotation
									JOINT RightArm
									{
										OFFSET -11.953299 -2.279007 -0.146200
										CHANNELS 3 Xrotation Yrotation Zrotation
										JOINT RightForeArm
										{
											OFFSET -18.448900 0.000000 0.000000
											CHANNELS 3 Xrotation Yrotation Zrotation
											JOINT RightHand
											{
												OFFSET -29.527802 0.000000 0.000000
												CHANNELS 3 Xrotation Yrotation Zrotation
												End Site
												{
													OFFSET 0 0 0
												}
											}
										}
									}
								}
							}
						}
					}
				}
			}
		}
	}
}
MOTION
Frames: 9
Frame Time: 0.03333333
8.943084 67.264076 56.488361 0.000000 0.000000 0.000000 -16.760818 -47.698739 -10.542435 -55.617025 -15.974438 32.296406 54.634359 -8.952641 4.290645 4.099789 -13.186675 -29.847886 -2.121441 0.579983 1.498025 0.000000 0.000000 0.000000 -18.832216 -43.607735 -10.554227 -26.324695 5.282435 -45.040207 77.286985 17.479991 -7.691258 -3.210983 -5.810427 23.148804 -22.763496 -1.937539 11.388076 0.000000 0.000000 0.000000 -15.859175 -41.344347 -11.049598 25.204539 3.168534 -9.152341 -0.801934 1.249480 0.546355 1.626679 -1.204573 1.230339 0.000000 0.000000 0.000000 0.798511 0.840726 0.928443 1.282851 15.048146 0.394718 0.957968 21.441386 -4.891209 0.000000 0.000000 0.000000 0.081640 1.049092 0.877924 0.855403 1.837110 -8.802072 -0.377783 -2.344896 2.279665 -59.515980 4.696558 -44.309479 -176.048850 -66.307504 -174.626080 0.000000 0.000000 0.000000 0.234979 0.541027 0.750215 2.629068 12.036066 -3.996720 -8.007795 -1.632313 1.921216 -45.672758 22.658271 87.033091 -175.062748 64.811665 173.460837 0.000000 0.000000 0.000000 
8.294636 67.961861 53.254646 0.000000 0.000000 0.000000 -15.961642 -47.162729 -8.454125 -52.229408 -15.082818 31.965224 46.457861 -9.553468 4.243102 8.575241 -13.576859 -31.785423 -1.450001 0.639913 0.863736 0.000000 0.000000 0.000000 -19.263148 -42.904578 -8.972232 -24.002897 3.162540 -45.754447 77.554401 17.512458 -8.044323 -11.538171 -9.296219 26.762722 -18.173796 -0.386790 7.171904 0.000000 0.000000 0.000000 -17.038971 -42.029470 -10.179092 23.811402 4.289694 -8.272034 -0.193217 1.390218 -0.160839 0.767386 -0.675821 1.354394 0.000000 0.000000 0.000000 1.144147 0.931564 0.255178 1.727132 14.715212 0.182068 3.312554 21.004911 -5.332087 0.000000 0.000000 0.000000 0.710890 1.181063 0.207015 0.759475 2.921114 -8.499413 -0.440896 -3.932680 2.425843 -58.187420 4.778075 -45.713387 -176.923729 -64.789761 -175.112609 0.000000 0.000000 0.000000 0.797673 0.621449 0.011946 2.454444 12.863288 -3.740420 -8.012183 -0.627972 1.207668 -46.940031 20.904023 87.520719 -173.832699 67.659198 172.542927 0.000000 0.000000 0.000000 
7.631513 69.232681 49.884140 0.000000 0.000000 0.000000 -13.988761 -45.907252 -5.723586 -50.486299 -13.745357 31.300623 38.647478 -8.977499 3.955010 12.463098 -13.890803 -30.860461 -0.814084 0.575626 -0.041805 0.000000 0.000000 0.000000 -17.933925 -41.499044 -6.510596 -20.050579 -0.264631 -44.727880 76.283903 16.371275 -7.616317 -21.844140 -14.062814 26.180677 -11.344077 0.493641 4.471101 0.000000 0.000000 0.000000 -16.937269 -41.954427 -8.323000 22.426052 5.256047 -7.621131 0.379020 1.459649 -0.918516 -0.057745 -0.114109 1.474762 0.000000 0.000000 0.000000 1.399434 1.010062 -0.493052 2.132854 14.147128 0.103077 4.831569 19.979275 -5.293305 0.000000 0.000000 0.000000 1.254794 1.274664 -0.477103 0.710259 3.570999 -7.979525 -0.665715 -4.833552 1.995479 -57.641469 3.854147 -46.675682 -178.193488 -63.551557 -176.079162 0.000000 0.000000 0.000000 1.307885 0.683439 -0.781672 2.361927 13.818684 -4.084914 -7.167580 0.836121 0.671368 -48.096140 19.385890 87.473802 -173.151429 68.663140 171.987879 0.000000 0.000000 0.000000 
6.991465 70.913429 46.382904 0.000000 0.000000 0.000000 -11.755123 -44.746430 -3.273403 -50.560410 -12.038004 30.423852 34.119401 -7.975959 3.871417 14.630345 -14.115030 -27.925170 -1.039509 0.359628 -0.729912 0.000000 0.000000 0.000000 -15.677980 -40.067771 -4.058446 -16.480563 -4.095527 -42.026806 73.942351 14.304410 -6.490643 -31.015882 -18.127969 22.376883 -5.089281 0.818099 3.068791 0.000000 0.000000 0.000000 -15.876432 -41.770742 -6.120570 21.109733 5.952994 -7.161123 0.880366 1.434511 -1.507840 -0.233927 0.513461 1.395081 0.000000 0.000000 0.000000 1.528798 1.046461 -1.076587 2.443267 13.487084 -0.090939 5.337685 18.717321 -5.029189 0.000000 0.000000 0.000000 1.636916 1.298828 -0.988409 0.707377 3.729486 -7.448432 -1.004336 -4.663541 1.150316 -57.812893 2.781673 -46.981029 -179.687551 -63.097438 -177.408782 0.000000 0.000000 0.000000 1.723630 0.730220 -1.381573 2.367160 14.625790 -5.096217 -5.900600 1.883055 0.626612 -49.501267 18.180777 86.687921 -173.573890 67.328419 172.406187 0.000000 0.000000 0.000000 
6.441036 72.972603 42.889359 0.000000 0.000000 0.000000 -9.731661 -44.339180 -1.503982 -52.185517 -10.016898 29.448965 34.999283 -7.805484 4.033004 14.752927 -14.786294 -24.903302 -2.544849 0.068468 -0.316296 0.000000 0.000000 0.000000 -13.176763 -39.401869 -2.180829 -15.202200 -7.250942 -38.433847 70.687875 12.283006 -5.163240 -35.742260 -20.168347 19.247668 -2.439037 0.862789 2.297890 0.000000 0.000000 0.000000 -14.007263 -41.833939 -4.023782 19.932613 6.373874 -6.807201 1.281846 1.334317 -1.764247 -0.092142 0.901134 1.314398 0.000000 0.000000 0.000000 1.544429 1.038616 -1.308561 2.550000 13.009984 -0.539847 4.882231 17.628954 -4.842582 0.000000 0.000000 0.000000 1.864802 1.238724 -1.185854 0.724891 3.454860 -7.074674 -1.478393 -3.698402 -0.088735 -58.674699 2.144941 -46.643283 178.795733 -63.691835 -178.934960 0.000000 0.000000 0.000000 2.002389 0.729804 -1.602804 2.432306 15.166099 -6.328571 -4.891301 2.128938 1.039813 -51.117890 17.186617 85.375131 -174.848185 64.536948 173.633026 0.000000 0.000000 0.000000 
5.972851 75.483971 39.433350 0.000000 0.000000 0.000000 -8.315024 -44.885783 -0.668019 -54.069721 -6.978666 28.226015 40.870257 -7.894368 4.180390 12.382560 -15.402418 -21.826424 -4.840028 -0.306002 1.221112 0.000000 0.000000 0.000000 -10.563749 -40.054012 -1.027166 -17.026816 -9.545428 -34.445580 66.685719 10.725283 -3.901351 -35.225813 -20.305898 18.569059 -3.560930 0.774318 1.660949 0.000000 0.000000 0.000000 -11.697003 -42.517415 -2.530826 18.891953 6.535762 -6.522751 1.558522 1.213088 -1.664534 0.395929 1.000213 1.095104 0.000000 0.000000 0.000000 1.492879 0.992815 -1.147629 2.493014 12.783684 -1.254632 3.700696 16.927090 -4.904579 0.000000 0.000000 0.000000 1.957773 1.127793 -1.055374 0.752378 2.834250 -6.899026 -1.915528 -2.411996 -1.245729 -60.100528 2.103554 -45.945781 177.423548 -65.008217 179.509133 0.000000 0.000000 0.000000 2.141963 0.701653 -1.411774 2.527323 15.390243 -7.429688 -4.164462 1.495387 1.581481 -52.621437 16.529464 83.979471 -176.164649 61.883194 174.920311 0.000000 0.000000 0.000000 
5.641769 78.496185 35.851215 0.000000 0.000000 0.000000 -7.072041 -46.337082 -0.632265 -54.584635 -2.882325 26.456946 49.474830 -7.182834 4.089247 7.312424 -15.060494 -18.121030 -6.857658 -0.787634 3.458522 0.000000 0.000000 0.000000 -8.188783 -42.143025 -0.670798 -21.073934 -11.644422 -30.386316 62.356834 9.255085 -2.567673 -31.479676 -18.965753 18.864692 -5.452765 0.726979 0.987306 0.000000 0.000000 0.000000 -9.003692 -44.027843 -1.713376 17.969362 6.506910 -6.270736 1.693324 1.139317 -1.319129 0.987911 0.994507 0.762329 0.000000 0.000000 0.000000 1.418309 0.941997 -0.714689 2.363263 12.830565 -2.110521 2.209817 16.657908 -5.263087 0.000000 0.000000 0.000000 1.947479 1.019480 -0.710348 0.750699 2.117114 -6.809605 -2.198252 -1.382333 -1.778821 -61.942002 2.638087 -45.042437 176.519095 -66.447072 178.281912 0.000000 0.000000 0.000000 2.171640 0.686431 -0.942709 2.666571 15.352735 -8.151467 -3.773967 0.482603 2.056286 -53.847917 16.192300 82.888963 -177.211129 60.435126 175.953623 0.000000 0.000000 0.000000 
5.443041 81.828644 32.100288 0.000000 0.000000 0.000000 -5.626743 -48.312291 -0.997963 -52.928779 1.675834 24.223536 57.982330 -5.710314 3.552095 0.437432 -13.703041 -14.042401 -7.727777 -1.153880 5.527875 0.000000 0.000000 0.000000 -5.781865 -45.226644 -0.659966 -25.849334 -13.726602 -26.428562 57.952687 7.453929 -1.106788 -27.096501 -16.742687 18.465413 -5.178484 0.809496 0.318400 0.000000 0.000000 0.000000 -6.099633 -46.154027 -1.401100 17.072833 6.370841 -6.021289 1.657730 1.130865 -0.900984 1.264095 0.789456 0.599016 0.000000 0.000000 0.000000 1.351587 0.918889 -0.201783 2.247360 13.109631 -2.863841 0.869648 16.809707 -5.801822 0.000000 0.000000 0.000000 1.843922 0.950520 -0.308291 0.705695 1.465439 -6.641867 -2.220497 -0.801685 -1.842398 -64.341072 3.299204 -44.112794 176.369240 -67.661213 177.720962 0.000000 0.000000 0.000000 2.088293 0.692266 -0.414426 2.825522 15.151223 -8.410801 -3.594008 -0.257328 2.231643 -54.977986 16.389597 82.507292 -177.910514 60.274951 176.681175 0.000000 0.000000 0.000000 
5.291980 85.131752 28.315702 0.000000 0.000000 0.000000 -3.742911 -50.669728 -1.346939 -48.948083 6.081451 21.743694 63.579369 -3.745523 2.630624 -6.604052 -11.787730 -9.981387 -8.073052 -1.346262 6.591087 0.000000 0.000000 0.000000 -3.639591 -48.794431 -0.830022 -30.035354 -15.692529 -23.086210 54.491659 5.262216 0.205693 -23.103224 -14.572767 17.090120 -3.464295 0.974964 -0.174724 0.000000 0.000000 0.000000 -3.222976 -48.707138 -1.306024 16.118234 6.202825 -5.823311 1.465137 1.171900 -0.571279 1.498177 0.465883 0.463670 0.000000 0.000000 0.000000 1.292705 0.929109 0.217859 2.197884 13.461503 -3.316759 0.054764 17.231766 -6.378691 0.000000 0.000000 0.000000 1.690029 0.950305 0.004329 0.648375 0.996802 -6.301686 -2.035883 -0.455597 -1.390938 -66.924775 3.798458 -43.288837 177.003464 -68.651857 177.931400 0.000000 0.000000 0.000000 1.936831 0.734350 -0.014291 3.015875 14.813601 -8.460820 -3.318272 -0.427717 2.088424 -56.186854 17.186223 82.862749 -178.148027 61.155554 176.984695 0.000000 0.000000 0.000000 
